<mxfile modified="2023-10-17T22:00:31.112Z" host="app.diagrams.net" agent="Mozilla/5.0 (X11; Linux x86_64) AppleWebKit/537.36 (KHTML, like Gecko) Chrome/117.0.0.0 Safari/537.36" etag="fMEU6nyXH0W8UhOZqqY7" version="22.0.4" type="github">
  <diagram id="l8hXMBHkgcEJcSW0mbfh" name="Page-1">
    <mxGraphModel dx="1194" dy="800" grid="1" gridSize="10" guides="1" tooltips="1" connect="1" arrows="1" fold="1" page="1" pageScale="1" pageWidth="1169" pageHeight="827" math="0" shadow="0">
      <root>
        <mxCell id="0" />
        <mxCell id="1" parent="0" />
        <mxCell id="AXx_dhtygLPRFTU0O1y_-5" style="edgeStyle=orthogonalEdgeStyle;rounded=0;orthogonalLoop=1;jettySize=auto;html=1;" edge="1" parent="1" source="AXx_dhtygLPRFTU0O1y_-1" target="AXx_dhtygLPRFTU0O1y_-4">
          <mxGeometry relative="1" as="geometry" />
        </mxCell>
        <mxCell id="AXx_dhtygLPRFTU0O1y_-6" style="edgeStyle=orthogonalEdgeStyle;rounded=0;orthogonalLoop=1;jettySize=auto;html=1;entryX=0.5;entryY=1;entryDx=0;entryDy=0;" edge="1" parent="1" source="AXx_dhtygLPRFTU0O1y_-1" target="AXx_dhtygLPRFTU0O1y_-3">
          <mxGeometry relative="1" as="geometry" />
        </mxCell>
        <mxCell id="AXx_dhtygLPRFTU0O1y_-8" style="edgeStyle=orthogonalEdgeStyle;rounded=0;orthogonalLoop=1;jettySize=auto;html=1;entryX=0.5;entryY=1;entryDx=0;entryDy=0;" edge="1" parent="1" source="AXx_dhtygLPRFTU0O1y_-1" target="AXx_dhtygLPRFTU0O1y_-7">
          <mxGeometry relative="1" as="geometry" />
        </mxCell>
        <mxCell id="AXx_dhtygLPRFTU0O1y_-1" value="Patrulhando" style="ellipse;whiteSpace=wrap;html=1;aspect=fixed;fillColor=#ffe6cc;strokeColor=#d79b00;fontStyle=1;align=center;" vertex="1" parent="1">
          <mxGeometry x="545" y="374" width="80" height="80" as="geometry" />
        </mxCell>
        <mxCell id="AXx_dhtygLPRFTU0O1y_-3" value="&lt;b&gt;Ataque de perto&lt;/b&gt;" style="ellipse;whiteSpace=wrap;html=1;aspect=fixed;" vertex="1" parent="1">
          <mxGeometry x="360" y="190" width="80" height="80" as="geometry" />
        </mxCell>
        <mxCell id="AXx_dhtygLPRFTU0O1y_-4" value="&lt;b&gt;Ataque de longe&lt;/b&gt;" style="ellipse;whiteSpace=wrap;html=1;aspect=fixed;" vertex="1" parent="1">
          <mxGeometry x="760" y="190" width="80" height="80" as="geometry" />
        </mxCell>
        <mxCell id="AXx_dhtygLPRFTU0O1y_-7" value="&lt;b&gt;Perseguição&lt;/b&gt;" style="ellipse;whiteSpace=wrap;html=1;aspect=fixed;" vertex="1" parent="1">
          <mxGeometry x="545" y="110" width="80" height="80" as="geometry" />
        </mxCell>
      </root>
    </mxGraphModel>
  </diagram>
</mxfile>
